<svg width="50" height="44" viewBox="0 0 50 44" fill="none" xmlns="http://www.w3.org/2000/svg">
<path d="M30.5506 24.8094C28.6205 16.3287 20.2421 11.1649 11.7358 13.2547C10.5663 13.5423 10.2978 13.178 10.3362 12.1044C10.3873 10.7111 10.3618 9.31793 10.3426 7.92472C10.2915 4.87626 7.98435 2.49246 5.1404 2.51803C2.28368 2.54359 0.021303 4.94656 0.00852118 7.99502C-0.0106515 11.4589 0.00852118 14.91 0.00852118 18.3738C0.00852118 21.5693 -0.00426059 24.7519 0.00852118 27.941C0.0404756 37.7957 9.21779 45.0877 18.8233 42.9084C27.1059 41.0295 32.3911 32.8875 30.5506 24.8094ZM21.859 27.1485C22.3702 26.6117 22.9135 26.126 23.5781 25.7681C23.7123 25.6914 23.8593 25.7617 23.9488 25.8895C24.0255 25.9981 24.0255 26.1068 23.9104 26.3496C23.4311 26.7267 22.8495 27.1868 22.2616 27.6278C22.1402 27.7109 21.9804 27.6789 21.8781 27.5447C21.7823 27.4233 21.7503 27.2635 21.859 27.1485ZM21.0537 26.9887C20.8364 27.1741 20.6447 27.3977 20.8492 27.6598C21.3093 28.2733 20.9067 28.5545 20.4466 28.8421C20.2293 28.9763 20.012 29.1233 19.5966 29.3853C20.2485 29.4364 20.6958 29.4556 21.1432 29.5067C21.5202 29.5515 21.7311 29.7368 21.5202 30.1394C21.2582 30.6251 21.3924 31.0342 21.6545 31.4815C22.006 32.0887 21.8206 32.5296 21.1751 32.7917C20.9323 32.8875 20.6766 32.9578 20.421 33.0281C18.9255 33.418 18.5996 33.9037 18.8169 35.4375C18.8616 35.7251 18.8872 36.0191 18.9895 36.2747C19.2195 36.8626 18.9958 37.0416 18.4207 37.048C16.4139 37.0927 14.4072 37.1502 12.4004 37.2333C11.8381 37.2589 11.576 37.0927 11.5121 36.5048C11.3268 34.7281 10.5151 33.2965 9.10914 32.1845C8.35502 31.5902 7.78623 30.7977 7.24939 30.0116C5.69002 27.7173 5.54303 25.2504 7.00654 23.314C9.03245 20.6426 11.9659 19.5433 15.1357 18.9554C15.8196 18.8276 16.2414 19.2046 16.3884 19.8501C16.5801 20.7193 16.9827 21.4287 17.6282 22.055C18.0883 22.5023 18.4079 23.0967 18.3759 23.7869C18.3568 24.2279 18.5932 24.4899 18.9511 24.6944C19.6158 25.0715 20.2804 25.4485 20.9323 25.8448C21.4499 26.1643 21.5714 26.5541 21.0537 26.9887ZM25.0033 29.8135C24.9777 29.9413 24.8946 30.0244 24.639 30.1011C24.0319 30.0116 23.3033 29.9094 22.5811 29.7879C22.4405 29.7624 22.3511 29.6154 22.3766 29.4556C22.4022 29.3022 22.498 29.168 22.645 29.168C23.3864 29.1616 24.1149 29.2319 24.8243 29.462C24.9777 29.5067 25.0352 29.6537 25.0033 29.8135ZM24.9841 28.056C24.6134 28.203 24.2236 28.3308 23.8401 28.4586C23.8401 28.4522 23.8401 28.4458 23.8337 28.4395C23.4056 28.5864 22.9838 28.7526 22.5556 28.8804C22.3574 28.9379 22.1593 28.8804 22.0826 28.6695C21.9996 28.4522 22.1338 28.2925 22.3319 28.2222C23.1371 27.9346 23.9424 27.6534 24.7476 27.3722C24.9394 27.3083 25.1439 27.3211 25.2333 27.5383C25.3484 27.8068 25.195 27.9729 24.9841 28.056Z" fill="#F4B301"/>
<path d="M49.9725 19.5114C49.9342 18.0287 49.8639 16.546 49.7552 15.0633C49.6913 14.1622 49.6082 13.2611 49.5124 12.3664C49.4037 11.3246 49.1736 10.3277 48.8413 9.38821C48.0297 7.2217 46.7132 5.30443 45.0324 3.7834C44.994 3.74506 44.9493 3.7131 44.9109 3.67476C44.8598 3.63002 44.8087 3.59168 44.7639 3.54694C42.2523 1.41878 39.0249 0.140599 35.7144 0.0127816C35.6953 0.0127816 35.6825 0.0127816 35.6633 0.0127816C35.6058 0.0127816 35.5547 0.0063903 35.4972 0.0063903C35.4077 0.0063903 35.3246 0 35.2351 0C34.9667 0 34.7047 0.0127814 34.4363 0.0255632C33.0239 0.108645 31.669 0.383453 30.3972 0.843597C29.5472 1.15675 28.7228 1.56577 27.924 2.06426C23.9297 4.57587 21.4436 8.11642 20.9771 12.8968C20.9451 13.2036 20.894 13.4784 20.8045 13.7084C20.7917 13.9641 20.7853 14.2261 20.7853 14.4881C20.7853 18.2588 22.2233 21.6843 24.5815 24.2598C24.9266 24.5474 25.2334 24.8542 25.5082 25.1865C26.4413 26.0365 27.483 26.765 28.6142 27.353C29.8093 27.9601 30.6848 28.3244 32.0652 28.6184C32.9664 28.8229 33.9058 28.9443 34.8645 28.9699C34.6727 28.2861 34.2765 27.8706 33.2476 27.8579C31.963 27.8451 31.1705 26.9312 30.7487 25.7553C30.5698 25.2504 30.6976 24.8733 31.1322 24.6113C31.5923 24.3365 32.0908 24.1192 32.5701 23.8636C32.7555 23.7677 33.0239 23.6718 32.8961 23.4034C32.781 23.1606 32.5126 23.2117 32.3209 23.3012C31.9055 23.4865 31.5156 23.723 31.1066 23.9147C30.8638 24.0361 30.5826 24.2342 30.3653 23.8955C30.148 23.5568 30.2247 23.2564 30.5698 23.02C31.0555 22.6876 31.5923 22.4576 32.11 22.1892C32.3273 22.0805 32.6852 21.9974 32.5318 21.6715C32.3784 21.3456 32.0716 21.5309 31.848 21.6268C31.4326 21.8057 31.0363 22.0294 30.6273 22.2275C30.4228 22.3298 30.2055 22.5407 29.9946 22.2658C29.7901 21.9974 29.7901 21.6779 30.0713 21.467C30.4675 21.173 30.9021 20.9301 31.3303 20.6745C31.5156 20.5659 31.7201 20.4828 31.9119 20.3805C32.0972 20.2847 32.2634 20.1569 32.1611 19.9332C32.1483 19.9076 32.1356 19.8884 32.1228 19.8693C32.0716 19.799 32.0077 19.767 31.9374 19.7606C31.848 19.7478 31.7457 19.7798 31.6498 19.8245C31.2025 20.0418 30.7679 20.2783 30.3205 20.502C30.0905 20.617 29.8476 20.9301 29.592 20.5723C29.3747 20.2655 29.4642 19.946 29.7581 19.7351C30.1224 19.4666 30.5123 19.2366 30.8957 19.0001C30.8957 19.0001 30.9021 19.0001 30.9021 18.9937C31.0427 18.9042 31.2025 18.8403 31.3559 18.7509C31.5732 18.6294 31.9247 18.5336 31.7265 18.214C31.5476 17.9137 31.2536 18.1118 31.0299 18.2204C30.8318 18.3163 30.6465 18.4249 30.4548 18.5272C30.2311 18.655 30.0074 18.7828 29.7837 18.9042C29.6175 19.0001 29.4322 19.1343 29.2533 18.9618C29.0807 18.802 29.0807 18.5847 29.1766 18.3738C29.3172 18.0543 29.592 17.8689 29.8668 17.69C29.8987 17.6708 29.9307 17.6516 29.9563 17.6261C30.2758 17.4088 30.6273 17.2298 30.9596 17.0381C31.1769 16.9103 31.522 16.8208 31.3686 16.5013C31.1897 16.1306 30.8638 16.3734 30.6401 16.4821C30.2822 16.661 29.9499 16.8783 29.6048 17.0828C29.56 17.1084 29.5153 17.1404 29.4706 17.1659C29.2788 17.2746 29.0871 17.5302 28.857 17.2554C28.6717 17.0317 28.71 16.7697 28.889 16.5524C28.9976 16.4182 29.1191 16.2968 29.2533 16.1881C29.5984 15.9005 30.0074 15.6896 30.3781 15.434C30.6401 15.255 31.1961 15.1592 30.9405 14.7566C30.704 14.3859 30.3141 14.7629 30.0329 14.9227C29.7006 15.1081 29.3939 15.3317 29.0807 15.5554C29.0424 15.5874 28.9976 15.6129 28.9593 15.6449C28.6397 15.875 28.4864 15.8238 28.3905 15.4212C28.0646 14.0472 28.5375 12.9096 29.4386 11.9318C29.4706 11.8934 29.5025 11.8615 29.5345 11.8231C30.5953 10.7175 31.963 10.0465 33.4201 9.56715C34.187 9.31152 35.0306 9.75888 35.3885 10.5322C35.5035 10.7814 35.5738 11.0498 35.6505 11.3119C35.7208 11.5419 35.772 11.8104 36.0979 11.7209C36.3983 11.6378 36.3663 11.3694 36.3152 11.1393C36.1746 10.5577 36.0276 9.98256 35.5547 9.56076C35.4652 9.48407 35.299 9.41377 35.3693 9.26678C35.446 9.09423 35.625 9.16453 35.772 9.17731C36.8392 9.28596 37.5806 9.97617 37.9321 11.1074C38.0152 11.3886 37.9449 11.9573 38.4306 11.8167C38.814 11.7081 38.584 11.2352 38.4945 10.922C38.3155 10.2829 37.9257 9.75888 37.3122 9.26039C38.143 9.19648 38.6223 9.56076 39.0313 10.0273C39.4212 10.4747 39.6193 11.0051 39.7215 11.5803C39.7535 11.7464 39.7854 11.9701 39.9963 11.9446C40.2711 11.9126 40.2072 11.657 40.1753 11.4844C40.1369 11.2224 40.0539 10.9604 39.9836 10.6664C40.5012 10.9412 41.1211 12.2002 41.0061 12.654C40.9358 12.9288 40.7313 12.8776 40.5396 12.8585C40.2392 12.8265 39.9388 12.769 39.6321 12.7434C39.4531 12.7306 39.2678 12.7754 39.2294 12.9799C39.1911 13.1972 39.3636 13.2739 39.5426 13.3122C39.8366 13.3697 40.1433 13.4081 40.4437 13.472C40.7441 13.5359 41.0381 13.6254 41.2298 13.881C41.3448 14.0408 41.4471 14.2133 41.3448 14.4114C41.2426 14.6096 41.0508 14.5393 40.8783 14.5265C40.5971 14.5009 40.3159 14.4562 40.0347 14.437C39.8238 14.4178 39.6193 14.469 39.6001 14.7118C39.5809 14.9483 39.7791 15.0314 39.9836 15.0633C40.3287 15.1144 40.6738 15.1464 41.0125 15.2103C41.2298 15.2487 41.4215 15.3445 41.5685 15.5043C41.5813 15.5235 41.6005 15.5362 41.6196 15.5554C41.7347 15.7152 41.8369 15.8877 41.7283 16.0795C41.658 16.2073 41.5429 16.2265 41.4215 16.2201C41.3704 16.2201 41.3193 16.2137 41.2617 16.2073C40.9358 16.1817 40.6099 16.1625 40.2839 16.1562C40.1242 16.1562 39.9708 16.2009 39.9388 16.3798C39.9069 16.5971 40.0602 16.6866 40.2456 16.7186C40.5587 16.7697 40.8783 16.808 41.1978 16.84C41.2042 16.84 41.2106 16.84 41.217 16.84C41.4599 16.8719 41.6899 16.9295 41.8753 17.0892C42.0606 17.249 42.2076 17.4599 42.1117 17.7028C42.0159 17.952 41.7538 17.9073 41.5429 17.8945C41.249 17.8817 40.955 17.837 40.661 17.8306C40.6482 17.8306 40.6418 17.8306 40.629 17.8306C40.4437 17.8306 40.2775 17.9073 40.2648 18.1182C40.2648 18.1885 40.2903 18.246 40.3287 18.2843C40.3862 18.3482 40.4693 18.3866 40.5587 18.4058C40.8335 18.4505 41.1147 18.476 41.4023 18.4952C41.7091 18.5144 42.0159 18.54 42.2587 18.7509C42.4504 18.9106 42.5719 19.1215 42.4888 19.3708C42.4121 19.5881 42.182 19.5753 41.9839 19.5753C41.658 19.5753 41.332 19.5625 41.0061 19.5753C40.8208 19.5753 40.6418 19.6328 40.6418 19.8565C40.6418 20.061 40.8144 20.1377 40.9997 20.1505C41.2617 20.1696 41.5238 20.1696 41.7858 20.176C42.0734 20.1888 42.3546 20.2272 42.591 20.3933C42.8019 20.5339 42.9361 20.732 42.885 20.9877C42.8275 21.2625 42.5783 21.2433 42.361 21.2497C42.035 21.2561 41.7091 21.2433 41.3832 21.2561C41.1914 21.2625 41.0317 21.3456 41.0317 21.5501C41.0317 21.7737 41.217 21.8121 41.3959 21.8313C41.4599 21.8377 41.5302 21.8313 41.5941 21.844C42.1437 21.9335 42.9106 21.5756 43.179 22.2531C43.5625 23.2117 43.8628 24.2342 43.1982 25.2376C42.77 25.8895 42.1117 26.2665 41.4151 26.5733C40.8463 26.8289 40.2392 27.0271 39.6448 27.2124C39.2614 27.3338 39.1144 27.5319 39.1783 27.909C39.2039 28.056 39.223 28.203 39.2486 28.3564C39.2678 28.4586 39.2806 28.5609 39.2997 28.6631C40.0091 28.5289 40.6929 28.35 41.3512 28.1391C41.4535 28.3627 41.4599 28.7526 41.4535 29.3789C41.4151 33.0281 38.552 35.6292 34.9411 35.348C34.8964 35.6036 34.9987 43.2982 35.0115 43.5667C35.0115 43.5858 35.0115 43.6114 35.0115 43.6306C41.9967 43.6945 48.7582 38.5179 49.4996 31.1683C49.915 27.2891 50.0684 23.397 49.9725 19.5114Z" fill="white"/>
<path d="M34.1487 17.5877C35.5483 17.0829 36.9799 16.7761 38.4689 16.7314C38.6735 16.725 38.8971 16.6675 38.9099 16.4374C38.9291 16.1818 38.6862 16.1626 38.4881 16.1434C38.2708 16.1242 38.0535 16.1434 37.8363 16.1434C36.4622 16.1434 35.1904 16.5652 33.925 17.0254C33.7205 17.102 33.4521 17.1851 33.5352 17.4408C33.631 17.7411 33.9314 17.6644 34.1487 17.5877Z" fill="white"/>
<path d="M37.3954 13.3058C37.5935 13.3122 37.7916 13.3058 37.9769 13.2738C38.1303 13.2482 38.2517 13.1524 38.2645 12.9734C38.2645 12.7753 38.0536 12.6411 37.6446 12.6411C36.1364 12.6475 34.6537 12.8201 33.2669 13.4464C33.024 13.555 32.6469 13.6509 32.8387 14.0088C33.0048 14.3283 33.3116 14.1046 33.5289 14.0088C34.7623 13.4911 36.0405 13.2419 37.3954 13.3058Z" fill="white"/>
<path d="M34.3979 19.4028C34.5066 19.3645 34.6919 19.3133 34.8773 19.2494C35.74 18.9491 36.6092 18.6934 37.5167 18.5656C37.9896 18.5017 38.4689 18.4761 38.9419 18.4186C39.14 18.393 39.3573 18.3355 39.3253 18.0863C39.2934 17.8434 39.0697 17.8179 38.8716 17.8307C38.4562 17.8562 38.0471 17.901 37.6381 17.9457C36.4814 18.0543 35.3821 18.393 34.3021 18.7829C34.104 18.8532 33.8675 18.9491 33.9378 19.2239C33.9825 19.3964 34.1551 19.4156 34.3979 19.4028Z" fill="white"/>
<path d="M33.7845 15.8494C33.9251 15.7983 34.0657 15.7344 34.2063 15.6833C35.3056 15.2551 36.4559 15.0633 37.6382 14.9867C37.9642 14.9675 38.5457 15.1976 38.5394 14.6927C38.533 14.2006 37.9386 14.4946 37.6574 14.3987C36.8266 14.4115 36.0469 14.5201 35.2928 14.7055C34.7048 14.8524 34.136 15.0697 33.5672 15.2742C33.3372 15.3573 33.0879 15.4851 33.2157 15.7791C33.3372 16.0475 33.58 15.9133 33.7845 15.8494Z" fill="white"/>
<path d="M34.9795 21.0899C35.4269 20.9557 35.8742 20.8151 36.3216 20.6872C36.6539 20.6361 36.9734 20.553 37.293 20.4444C37.4655 20.406 37.6317 20.3741 37.8043 20.3421C38.3155 20.2654 38.8396 20.2207 39.3509 20.1568C39.5426 20.1312 39.6896 20.0545 39.664 19.8373C39.6448 19.6583 39.4978 19.6008 39.3317 19.5944C39.2294 19.588 39.1272 19.588 38.9674 19.588C38.9227 19.588 38.8715 19.588 38.8076 19.588C37.4975 19.6775 36.1235 20.0418 34.7622 20.4891C34.6344 20.5339 34.4682 20.5786 34.366 20.6617C34.2829 20.732 34.2381 20.8278 34.2893 20.9748C34.4299 21.3072 34.743 21.1538 34.9795 21.0899Z" fill="white"/>
<path d="M40.054 25.8638C39.76 26.1067 39.4085 26.2792 38.9675 26.5668C40.6419 26.3432 41.3258 25.474 41.2043 23.7932C41.1788 23.4353 41.2874 22.7962 40.7634 22.8537C40.2904 22.9049 40.61 23.4736 40.6547 23.7804C40.7634 24.5729 40.725 25.3078 40.054 25.8638Z" fill="white"/>
<path d="M36.9097 26.5477C36.7499 26.6244 36.4559 26.6372 36.5518 26.8865C36.6284 27.091 36.8969 27.0079 37.0822 26.9823C38.3476 26.797 39.1848 25.8256 39.1592 24.5666C39.1465 24.1256 39.1401 23.6846 38.9803 23.2628C38.9228 23.1158 38.8205 23.0072 38.6352 23.0519C38.4882 23.0903 38.4243 23.1989 38.4179 23.3331C38.4115 23.4801 38.4179 23.6271 38.4371 23.7741C38.6671 25.4293 38.4435 25.8256 36.9097 26.5477Z" fill="white"/>
</svg>
